<svg width="48" height="48" viewBox="0 0 48 48" fill="none" xmlns="http://www.w3.org/2000/svg">
<path d="M48.0002 21.0297C48.0115 19.7114 47.32 19.1403 46.0565 19.1432C44.9239 19.146 43.7941 19.1432 42.6671 19.1432C42.4224 18.45 42.3285 17.7994 41.9955 17.3135C40.4446 15.0464 40.8117 13.2565 43.0542 11.6569C44.0132 10.9723 43.9392 9.94946 43.0684 9.08293C41.6597 7.67944 40.2596 6.26458 38.8424 4.86962C38.02 4.05991 37.1691 4.09968 36.3381 4.86677C35.9909 5.18782 35.6067 5.49181 35.3335 5.86968C34.3745 7.18225 33.4468 7.08282 31.8787 6.58279C29.3004 5.76171 28.35 4.47755 28.7854 1.8666C28.9789 0.710279 28.2532 9.22543e-06 27.0039 9.22543e-06C25.0118 9.22543e-06 23.0169 0.0028503 21.0249 9.22543e-06C19.7813 -0.00283185 19.2007 0.650616 19.1865 1.84671C19.1723 3.02292 19.1837 4.19628 19.1837 5.33839C18.5007 5.56568 17.8888 5.63671 17.4363 5.94354C15.1398 7.50045 13.2872 7.19362 11.6508 4.90087C11.0048 3.99741 9.99458 4.05139 9.17215 4.85257C7.71226 6.27311 6.26659 7.70785 4.8437 9.16533C4.0981 9.92957 4.09525 10.7762 4.81808 11.5632C5.45839 12.2593 6.19545 12.8729 6.79306 13.6059C7.03211 13.8986 7.18578 14.4753 7.06057 14.8077C6.52271 16.2538 5.86818 17.6601 5.22788 19.1432C4.10094 19.1432 2.96547 19.129 1.83 19.146C0.626229 19.1631 -0.00553709 19.7625 0.00300029 20.9984C0.0115377 22.9389 0.0172293 24.8822 0.000154493 26.8226C-0.0112287 28.1153 0.606309 28.7546 1.89261 28.7602C2.46177 28.7631 3.04515 28.8398 3.59724 28.7489C4.96891 28.5244 5.36448 29.2574 5.98486 30.3825C7.31954 32.8116 7.29962 34.6441 4.88638 36.3175C3.97573 36.9511 4.08387 37.9653 4.89207 38.7864C5.7885 39.6984 6.69346 40.6018 7.60127 41.5025C10.4015 44.2867 10.4015 44.2867 13.2416 41.4741C13.4437 41.2752 13.623 41.0308 13.862 40.8973C14.084 40.7723 14.4568 40.6359 14.6218 40.7354C16.022 41.582 17.5359 42.3292 18.7027 43.4344C19.2292 43.9316 19.1068 45.1703 19.1723 46.0794C19.2548 47.2897 19.8183 47.8977 21.0448 47.9091C21.9924 47.9176 22.9373 47.983 23.8849 48C24.8212 48.0171 25.4501 47.5596 25.581 46.6306C25.7233 45.6334 25.2025 44.9856 24.2349 44.7782C23.6914 44.6617 23.1137 44.6873 22.5531 44.6504C22.6527 44.5737 22.7494 44.4998 22.849 44.4231C22.2856 43.3577 21.816 42.2298 21.1444 41.2382C19.5991 38.9455 16.8501 38.4029 14.656 37.059C14.2519 36.8119 13.2359 37.0988 12.792 37.4767C11.9866 38.167 11.4004 39.1103 10.7231 39.9484C10.6406 39.7666 10.558 39.5876 10.4755 39.4058C9.71854 38.8006 8.96156 38.1983 7.95699 37.3971C8.87903 36.6016 9.59902 35.9879 10.3105 35.3629C11.1955 34.5844 11.1927 33.7861 10.6633 32.715C9.76692 30.9081 9.01278 29.0188 8.35256 27.1096C7.98261 26.0413 7.41914 25.5328 6.30643 25.5612C5.32179 25.5868 4.33714 25.5669 3.27566 25.5669C3.27566 24.4361 3.27566 23.4701 3.27566 22.3394C4.33714 22.3394 5.32179 22.3167 6.30643 22.3451C7.42198 22.3763 7.97976 21.8706 8.34971 20.7995C9.00994 18.8903 9.76692 17.0039 10.6633 15.1969C11.1955 14.1258 11.204 13.319 10.3048 12.5547C9.55633 11.9155 8.77374 11.316 8.27288 10.9154C9.14938 9.75911 9.73846 8.9835 10.5381 7.92946C11.2809 8.80735 11.8557 9.50057 12.4448 10.1796C13.2843 11.1456 14.1352 11.2194 15.3276 10.5915C17.0294 9.69377 18.8422 8.96361 20.6777 8.37835C21.8815 7.9948 22.4392 7.41522 22.3823 6.17083C22.3396 5.20486 22.3738 4.23606 22.3738 3.25873C23.569 3.25873 24.5024 3.25873 25.6208 3.25873C25.6208 4.35254 25.6351 5.38101 25.618 6.40948C25.6009 7.47488 26.1388 7.97491 27.132 8.33005C29.0813 9.02611 31.0022 9.82161 32.8748 10.7052C33.8309 11.1569 34.5965 11.1995 35.2994 10.404C35.9852 9.62842 36.617 8.81019 37.2004 8.09992C38.2903 9.04032 39.0245 9.67672 39.9466 10.4694C39.0814 11.2649 38.3472 11.9297 37.6244 12.6087C36.8133 13.3673 36.8133 14.1315 37.3142 15.1486C38.2049 16.9612 38.979 18.842 39.6335 20.7512C39.9978 21.8138 40.5214 22.365 41.6427 22.3451C42.6671 22.328 43.6888 22.3422 44.8072 22.3422C44.8072 23.4645 44.8015 24.3594 44.81 25.2543C44.8186 26.3538 45.2625 27.1266 46.4663 27.1039C47.5961 27.0812 48.0058 26.3396 48.003 25.297C47.9945 23.8707 47.9859 22.4502 48.0002 21.0297Z" fill="#C09C00"/>
<path d="M33.6287 23.9901C33.6515 18.737 29.3429 14.3873 24.0754 14.3503C18.7509 14.3134 14.3598 18.6716 14.3741 23.9873C14.3883 29.2347 18.731 33.5503 23.9985 33.5503C29.2718 33.5475 33.6031 29.2489 33.6287 23.9901ZM17.6382 23.9731C17.6211 20.399 20.4271 17.5948 24.0128 17.6005C27.5899 17.6062 30.376 20.4132 30.3646 24.0015C30.3532 27.5074 27.5814 30.2803 24.0583 30.3058C20.4697 30.3286 17.6524 27.5528 17.6382 23.9731Z" fill="#C09C00"/>
<path d="M45.4247 30.2233C45.0775 30.283 44.7958 30.766 44.4941 31.0671C40.2112 35.3572 35.9311 39.65 31.4547 44.1389C29.4 42.0564 27.4933 40.1501 25.6237 38.2124C24.8126 37.3715 23.9589 36.8629 22.9116 37.7181C22.092 38.3857 22.2969 39.4398 23.3812 40.5308C25.4871 42.6474 27.5929 44.764 29.7102 46.8692C31.1445 48.2983 31.8019 48.2869 33.2618 46.8323C37.7268 42.3803 42.1862 37.9283 46.6484 33.4735C46.9842 33.1383 47.5192 32.8286 47.5846 32.4422C47.707 31.7433 47.7981 30.7887 47.4224 30.3285C47.1322 29.9733 46.0934 30.1068 45.4247 30.2233Z" fill="#C09C00"/>
</svg>
