<svg width="48" height="48" viewBox="0 0 48 48" fill="none" xmlns="http://www.w3.org/2000/svg">
<path d="M32.2602 0C23.5672 0 16.5204 7.04987 16.5204 15.7468C16.5204 18.3641 17.1585 20.8326 18.2879 23.0031C18.3347 23.2861 18.3177 23.5989 18.1901 23.7393C16.9182 25.1502 15.5718 26.4993 14.0425 28.0825C13.3299 27.2419 12.7429 26.5503 12.1282 25.8268C9.12908 28.8272 6.26189 31.7659 3.31387 34.6238C1.75903 36.1303 0.429654 37.7242 0 39.9138V41.829C0.487083 42.9461 0.846546 44.1463 1.49103 45.1656C2.55027 46.8445 4.30717 47.5467 6.1683 48H8.0826C10.2628 47.568 11.8942 46.2806 13.3597 44.6868C14.4381 43.5143 15.6015 42.4205 16.7289 41.2948C18.5262 39.501 20.3256 37.7093 22.3335 35.709C21.555 35.0451 20.8701 34.4578 20.1235 33.8215C21.4019 32.566 22.6291 31.4403 23.7543 30.2189C24.1478 29.7912 24.4818 29.6231 24.8902 29.6635C27.0873 30.8318 29.5972 31.4935 32.2602 31.4935C40.9533 31.4935 48 24.4437 48 15.7468C48 7.04987 40.9533 0 32.2602 0ZM17.6477 36.3793C15.1995 38.8349 12.7514 41.2948 10.2904 43.7377C8.39952 45.6146 5.80245 45.6614 4.05406 43.8782C2.33757 42.1269 2.40564 39.5733 4.24762 37.7157C6.83618 35.1047 9.43962 32.5065 12.0814 29.8593C14.1212 31.9106 16.0652 33.8683 18.0625 35.875C17.9476 36.0154 17.8136 36.2133 17.6477 36.3793ZM18.0136 31.6042C17.4967 31.1148 16.8331 30.487 16.2715 29.9529C17.6137 28.5676 18.909 27.2292 20.1406 25.9609C20.7553 26.5801 21.3721 27.2015 21.9506 27.7845C20.7255 28.9741 19.3919 30.2679 18.0136 31.6042ZM19.3961 15.7468C19.4067 8.6969 25.2496 2.88975 32.29 2.9323C39.3027 2.97274 45.0541 8.76074 45.0477 15.7702C45.0413 22.8179 39.1942 28.6357 32.1602 28.5932C25.156 28.5506 19.3876 22.7456 19.3961 15.7468Z" fill="#C09C00"/>
<path d="M38.0602 8.49475C34.2443 8.49475 30.5455 8.49475 26.8594 8.49475C26.8594 9.42892 26.8594 10.295 26.8594 11.1504C30.6327 11.1504 34.3294 11.1504 38.0602 11.1504C38.0602 10.2354 38.0602 9.39487 38.0602 8.49475Z" fill="#C09C00"/>
<path d="M38.005 14.2253C34.2168 14.2253 30.5201 14.2253 26.834 14.2253C26.834 15.151 26.834 15.9894 26.834 16.8491C30.6094 16.8491 34.3338 16.8491 38.005 16.8491C38.005 15.9 38.005 15.0361 38.005 14.2253Z" fill="#C09C00"/>
<path d="M33.8025 19.9069C31.4118 19.9069 29.1316 19.9069 26.8643 19.9069C26.8643 20.8602 26.8643 21.722 26.8643 22.5774C29.2295 22.5774 31.5118 22.5774 33.8025 22.5774C33.8025 21.6603 33.8025 20.8176 33.8025 19.9069Z" fill="#C09C00"/>
</svg>
