<svg width="31" height="44" viewBox="0 0 31 44" fill="none" xmlns="http://www.w3.org/2000/svg">
<path d="M28.9545 15.3717C28.9543 18.3981 28.2693 21.3853 26.9508 24.1094L22.2226 33.8826C19.909 38.6626 18.7522 41.0525 17.1102 41.6927C16.0601 42.1024 14.8943 42.1024 13.8442 41.6927C12.2023 41.0525 11.0455 38.6626 8.73188 33.8826L4.00362 24.1072C2.68545 21.3837 2.00049 18.3973 2 15.3717C2 7.98614 8.09171 2 15.4772 2C22.8628 2 28.9545 7.98614 28.9545 15.3717Z" stroke="white" stroke-width="4"/>
<path d="M19.9695 15.4772C19.9695 16.6687 19.4962 17.8114 18.6537 18.6539C17.8112 19.4963 16.6685 19.9697 15.4771 19.9697C14.2856 19.9697 13.143 19.4963 12.3005 18.6539C11.458 17.8114 10.9847 16.6687 10.9847 15.4772C10.9847 14.2858 11.458 13.1431 12.3005 12.3006C13.143 11.4581 14.2856 10.9848 15.4771 10.9848C16.6685 10.9848 17.8112 11.4581 18.6537 12.3006C19.4962 13.1431 19.9695 14.2858 19.9695 15.4772Z" fill="white"/>
</svg>
