<svg width="44" height="44" viewBox="0 0 44 44" fill="none" xmlns="http://www.w3.org/2000/svg">
<path d="M37.4923 39.8338C26.5779 50.7482 -6.74821 17.4221 4.16619 6.50768L7.22223 3.45164C7.75873 2.91557 8.41101 2.50964 9.12892 2.26506C9.84682 2.02047 10.6113 1.94374 11.3634 2.04076C12.1156 2.13778 12.8356 2.40597 13.4679 2.82471C14.1003 3.24345 14.6282 3.8016 15.0111 4.45626L16.3358 6.72348C16.8083 7.53125 17.0428 8.45622 17.0121 9.39157C16.9813 10.3269 16.6867 11.2345 16.1621 12.0095L15.2617 13.3366C14.7768 14.0529 14.5566 14.9158 14.639 15.7768C14.7214 16.6378 15.1012 17.4433 15.7131 18.0546L20.828 23.172L25.9454 28.2869C26.557 28.8984 27.3626 29.2777 28.2237 29.3597C29.0847 29.4416 29.9474 29.221 30.6634 28.7358L31.9905 27.8379C32.7655 27.3133 33.6731 27.0187 34.6084 26.9879C35.5438 26.9572 36.4687 27.1917 37.2765 27.6642L39.5437 28.9889C40.1982 29.372 40.7562 29.9001 41.1747 30.5326C41.5932 31.165 41.8611 31.885 41.9579 32.6372C42.0547 33.3894 41.9777 34.1537 41.7329 34.8715C41.4881 35.5893 41.0821 36.2414 40.5459 36.7778L37.4923 39.8338Z" stroke="white" stroke-width="4" stroke-linecap="round" stroke-linejoin="round"/>
</svg>
